<svg width="25" height="24" viewBox="0 0 25 24" fill="none" xmlns="http://www.w3.org/2000/svg">
<g clip-path="url(#clip0_6104_4053)">
<path d="M19.7 19.2C20.3365 19.2 20.947 19.4529 21.3971 19.9029C21.8471 20.353 22.1 20.9635 22.1 21.6C22.1 22.2365 21.8471 22.847 21.3971 23.2971C20.947 23.7471 20.3365 24 19.7 24C19.0635 24 18.453 23.7471 18.0029 23.2971C17.5529 22.847 17.3 22.2365 17.3 21.6C17.3 20.268 18.368 19.2 19.7 19.2ZM0.5 0H4.424L5.552 2.4H23.3C23.6183 2.4 23.9235 2.52643 24.1485 2.75147C24.3736 2.97652 24.5 3.28174 24.5 3.6C24.5 3.804 24.44 4.008 24.356 4.2L20.06 11.964C19.652 12.696 18.86 13.2 17.96 13.2H9.02L7.94 15.156L7.904 15.3C7.904 15.3796 7.93561 15.4559 7.99187 15.5121C8.04813 15.5684 8.12444 15.6 8.204 15.6H22.1V18H7.7C7.06348 18 6.45303 17.7471 6.00294 17.2971C5.55286 16.847 5.3 16.2365 5.3 15.6C5.3 15.18 5.408 14.784 5.588 14.448L7.22 11.508L2.9 2.4H0.5V0ZM7.7 19.2C8.33652 19.2 8.94697 19.4529 9.39706 19.9029C9.84714 20.353 10.1 20.9635 10.1 21.6C10.1 22.2365 9.84714 22.847 9.39706 23.2971C8.94697 23.7471 8.33652 24 7.7 24C7.06348 24 6.45303 23.7471 6.00294 23.2971C5.55286 22.847 5.3 22.2365 5.3 21.6C5.3 20.268 6.368 19.2 7.7 19.2ZM18.5 10.8L21.836 4.8H6.668L9.5 10.8H18.5Z" fill="#2B2B2B"/>
</g>
<defs>
<clipPath id="clip0_6104_4053">
<rect width="24" height="24" fill="white" transform="translate(0.5)"/>
</clipPath>
</defs>
</svg>
