<svg width="25" height="24" viewBox="0 0 25 24" fill="none" xmlns="http://www.w3.org/2000/svg">
<path d="M4.5 20H19.5M13.487 6.92643C13.487 6.92643 13.487 8.28861 14.8492 9.6508C16.2114 11.013 17.5736 11.013 17.5736 11.013M8.09969 17.4901L10.9603 17.0814C11.3729 17.0225 11.7553 16.8313 12.05 16.5365L18.9358 9.6508C19.6881 8.89848 19.6881 7.67874 18.9358 6.92642L17.5736 5.56424C16.8213 4.81192 15.6015 4.81192 14.8492 5.56424L7.96347 12.45C7.66873 12.7447 7.47754 13.1271 7.41859 13.5397L7.00994 16.4003C6.91913 17.036 7.464 17.5809 8.09969 17.4901Z" stroke="#2B2B2B" stroke-width="1.4" stroke-linecap="round"/>
</svg>
