<svg width="25" height="24" viewBox="0 0 25 24" fill="none" xmlns="http://www.w3.org/2000/svg">
<mask id="path-1-inside-1_6104_4064" fill="white">
<path d="M18.29 22.75H6.71C3.97 22.75 1.75 20.52 1.75 17.78V10.37C1.75 9.00997 2.59 7.29997 3.67 6.45997L9.06 2.25997C10.68 0.999974 13.27 0.939974 14.95 2.11997L21.13 6.44997C22.32 7.27997 23.25 9.05997 23.25 10.51V17.79C23.25 20.52 21.03 22.75 18.29 22.75ZM9.98 3.43997L4.59 7.63997C3.88 8.19997 3.25 9.46997 3.25 10.37V17.78C3.25 19.69 4.8 21.25 6.71 21.25H18.29C20.2 21.25 21.75 19.7 21.75 17.79V10.51C21.75 9.54997 21.06 8.21997 20.27 7.67997L14.09 3.34997C12.95 2.54997 11.07 2.58997 9.98 3.43997Z"/>
</mask>
<path d="M18.29 22.75H6.71C3.97 22.75 1.75 20.52 1.75 17.78V10.37C1.75 9.00997 2.59 7.29997 3.67 6.45997L9.06 2.25997C10.68 0.999974 13.27 0.939974 14.95 2.11997L21.13 6.44997C22.32 7.27997 23.25 9.05997 23.25 10.51V17.79C23.25 20.52 21.03 22.75 18.29 22.75ZM9.98 3.43997L4.59 7.63997C3.88 8.19997 3.25 9.46997 3.25 10.37V17.78C3.25 19.69 4.8 21.25 6.71 21.25H18.29C20.2 21.25 21.75 19.7 21.75 17.79V10.51C21.75 9.54997 21.06 8.21997 20.27 7.67997L14.09 3.34997C12.95 2.54997 11.07 2.58997 9.98 3.43997Z" fill="#2B2B2B"/>
<path d="M3.67 6.45997L4.89788 8.03868L4.8993 8.03757L3.67 6.45997ZM9.06 2.25997L7.83212 0.681269L7.8307 0.682373L9.06 2.25997ZM14.95 2.11997L13.8005 3.75661L13.8024 3.75794L14.95 2.11997ZM21.13 6.44997L19.9824 8.08794L19.9859 8.09038L21.13 6.44997ZM9.98 3.43997L11.2093 5.01757L11.2099 5.01712L9.98 3.43997ZM4.59 7.63997L3.36068 6.06235L3.35143 6.06964L4.59 7.63997ZM20.27 7.67997L19.1224 9.31794L19.1318 9.32458L19.1414 9.3311L20.27 7.67997ZM14.09 3.34997L12.9411 4.98709L12.9424 4.98794L14.09 3.34997ZM18.29 20.75H6.71V24.75H18.29V20.75ZM6.71 20.75C5.07981 20.75 3.75 19.4207 3.75 17.78H-0.25C-0.25 21.6193 2.86019 24.75 6.71 24.75V20.75ZM3.75 17.78V10.37H-0.25V17.78H3.75ZM3.75 10.37C3.75 10.0681 3.85387 9.60319 4.1002 9.1016C4.34621 8.60066 4.65277 8.22932 4.89788 8.03868L2.44212 4.88127C1.60723 5.53063 0.953788 6.43429 0.509803 7.33835C0.0661345 8.24176 -0.25 9.31184 -0.25 10.37H3.75ZM4.8993 8.03757L10.2893 3.83757L7.8307 0.682373L2.4407 4.88237L4.8993 8.03757ZM10.2879 3.83868C11.2122 3.1198 12.8375 3.08022 13.8005 3.75661L16.0995 0.483343C13.7025 -1.20028 10.1478 -1.11985 7.83212 0.68127L10.2879 3.83868ZM13.8024 3.75794L19.9824 8.08794L22.2776 4.81201L16.0976 0.482008L13.8024 3.75794ZM19.9859 8.09038C20.2572 8.27965 20.5935 8.65634 20.8635 9.17333C21.1335 9.69044 21.25 10.1807 21.25 10.51H25.25C25.25 9.38928 24.9015 8.26451 24.409 7.32162C23.9165 6.37861 23.1928 5.45029 22.2741 4.80957L19.9859 8.09038ZM21.25 10.51V17.79H25.25V10.51H21.25ZM21.25 17.79C21.25 19.418 19.9228 20.75 18.29 20.75V24.75C22.1372 24.75 25.25 21.6219 25.25 17.79H21.25ZM8.7507 1.86237L3.3607 6.06237L5.8193 9.21757L11.2093 5.01757L8.7507 1.86237ZM3.35143 6.06964C2.6898 6.59149 2.18946 7.32395 1.85955 7.99383C1.53086 8.66122 1.25 9.5128 1.25 10.37H5.25C5.25 10.3724 5.24993 10.3559 5.25556 10.319C5.2611 10.2827 5.27102 10.2341 5.28755 10.1742C5.32121 10.0522 5.37509 9.90907 5.44795 9.76112C5.61054 9.431 5.7802 9.24846 5.82857 9.21031L3.35143 6.06964ZM1.25 10.37V17.78H5.25V10.37H1.25ZM1.25 17.78C1.25 20.787 3.68793 23.25 6.71 23.25V19.25C5.91207 19.25 5.25 18.5929 5.25 17.78H1.25ZM6.71 23.25H18.29V19.25H6.71V23.25ZM18.29 23.25C21.3046 23.25 23.75 20.8045 23.75 17.79H19.75C19.75 18.5954 19.0954 19.25 18.29 19.25V23.25ZM23.75 17.79V10.51H19.75V17.79H23.75ZM23.75 10.51C23.75 9.60852 23.4457 8.71458 23.0795 8.01249C22.7142 7.31223 22.1523 6.544 21.3986 6.02885L19.1414 9.3311C19.1396 9.32987 19.1538 9.33951 19.1815 9.36591C19.2088 9.39192 19.2439 9.42905 19.2844 9.47869C19.3669 9.57992 19.4542 9.71146 19.533 9.86246C19.6117 10.0134 19.6705 10.162 19.7076 10.291C19.7462 10.4253 19.75 10.499 19.75 10.51H23.75ZM21.4176 6.04201L15.2376 1.71201L12.9424 4.98794L19.1224 9.31794L21.4176 6.04201ZM15.2389 1.71286C14.2515 1.02 13.0552 0.753205 11.9729 0.776695C10.8916 0.800162 9.7048 1.11835 8.75012 1.86283L11.2099 5.01712C11.3452 4.9116 11.6434 4.78479 12.0596 4.77575C12.4748 4.76674 12.7885 4.87995 12.9411 4.98709L15.2389 1.71286Z" fill="#2B2B2B" mask="url(#path-1-inside-1_6104_4064)"/>
<path d="M12.5 18.25C12.3661 18.25 12.25 18.1339 12.25 18V15C12.25 14.8661 12.3661 14.75 12.5 14.75C12.6339 14.75 12.75 14.8661 12.75 15V18C12.75 18.1339 12.6339 18.25 12.5 18.25Z" fill="#2B2B2B" stroke="#2B2B2B"/>
</svg>
