<svg width="25" height="24" viewBox="0 0 25 24" fill="none" xmlns="http://www.w3.org/2000/svg">
<path d="M18.7395 8.97519L17.895 9.07104L18.7395 8.97519ZM19.1867 12.9153L20.0313 12.8194V12.8194L19.1867 12.9153ZM5.81328 12.9153L4.9687 12.8194L5.81328 12.9153ZM6.26046 8.97519L7.10504 9.07104L6.26046 8.97519ZM4.94779 14.8721L4.30053 14.3212H4.30053L4.94779 14.8721ZM20.0522 14.8721L19.405 15.4231V15.4231L20.0522 14.8721ZM14.7699 4.37366H13.9199C13.9199 4.73699 14.1509 5.06014 14.4946 5.17783L14.7699 4.37366ZM10.2301 4.37366L10.5054 5.17783C10.8491 5.06014 11.0801 4.73699 11.0801 4.37366H10.2301ZM16.2959 20.2983C16.4607 19.8587 16.2379 19.3688 15.7983 19.2041C15.3587 19.0393 14.8688 19.2621 14.7041 19.7017L16.2959 20.2983ZM10.2959 19.7017C10.1312 19.2621 9.64129 19.0393 9.2017 19.2041C8.76212 19.3688 8.53932 19.8587 8.70406 20.2983L10.2959 19.7017ZM18.2772 17.15H6.72281V18.85H18.2772V17.15ZM17.895 9.07104L18.3421 13.0111L20.0313 12.8194L19.5841 8.87933L17.895 9.07104ZM6.65785 13.0111L7.10504 9.07104L5.41589 8.87933L4.9687 12.8194L6.65785 13.0111ZM5.59504 15.4231C6.18458 14.7305 6.55729 13.8972 6.65785 13.0111L4.9687 12.8194C4.90819 13.3526 4.68231 13.8727 4.30053 14.3212L5.59504 15.4231ZM18.3421 13.0111C18.4427 13.8972 18.8154 14.7305 19.405 15.4231L20.6995 14.3212C20.3177 13.8727 20.0918 13.3526 20.0313 12.8194L18.3421 13.0111ZM6.72281 17.15C6.10233 17.15 5.67293 16.8442 5.47753 16.4998C5.29052 16.1703 5.29219 15.7789 5.59504 15.4231L4.30053 14.3212C3.50636 15.2541 3.48135 16.4267 3.99901 17.3389C4.50829 18.2363 5.51492 18.85 6.72281 18.85V17.15ZM18.2772 18.85C19.4851 18.85 20.4917 18.2363 21.001 17.3389C21.5187 16.4267 21.4936 15.2541 20.6995 14.3212L19.405 15.4231C19.7078 15.7789 19.7095 16.1703 19.5225 16.4998C19.3271 16.8442 18.8977 17.15 18.2772 17.15V18.85ZM15.6199 4.37366V4.26995H13.9199V4.37366H15.6199ZM19.5841 8.87933C19.2998 6.37421 17.443 4.39044 15.0453 3.56949L14.4946 5.17783C16.3817 5.82395 17.697 7.32706 17.895 9.07104L19.5841 8.87933ZM11.0801 4.37366V4.26995H9.38005V4.37366H11.0801ZM7.10504 9.07104C7.30298 7.32706 8.6183 5.82395 10.5054 5.17783L9.95472 3.56949C7.55701 4.39044 5.70021 6.37421 5.41589 8.87933L7.10504 9.07104ZM12.5 2.85C13.2842 2.85 13.9199 3.48573 13.9199 4.26995H15.6199C15.6199 2.54685 14.2231 1.15 12.5 1.15V2.85ZM12.5 1.15C10.7769 1.15 9.38005 2.54685 9.38005 4.26995H11.0801C11.0801 3.48573 11.7158 2.85 12.5 2.85V1.15ZM14.7041 19.7017C14.3965 20.5223 13.5445 21.15 12.5 21.15V22.85C14.2255 22.85 15.7301 21.8081 16.2959 20.2983L14.7041 19.7017ZM12.5 21.15C11.4555 21.15 10.6035 20.5223 10.2959 19.7017L8.70406 20.2983C9.26991 21.8081 10.7745 22.85 12.5 22.85V21.15Z" fill="#2B2B2B"/>
</svg>
