<svg width="25" height="24" viewBox="0 0 25 24" fill="none" xmlns="http://www.w3.org/2000/svg">
<path d="M19.2043 18.2963C19.8233 18.9153 19.8233 19.9183 19.2043 20.5363C18.5853 21.1553 17.5823 21.1553 16.9642 20.5363C16.3452 19.9173 16.3452 18.9143 16.9642 18.2963C17.5833 17.6773 18.5863 17.6773 19.2043 18.2963" stroke="#2B2B2B" stroke-width="1.5" stroke-linecap="round" stroke-linejoin="round"/>
<path d="M8.20412 18.2959C8.82312 18.9149 8.82312 19.9179 8.20412 20.5359C7.58512 21.1549 6.58212 21.1549 5.96412 20.5359C5.34612 19.9169 5.34512 18.9139 5.96412 18.2959C6.58312 17.6779 7.58512 17.6769 8.20412 18.2959" stroke="#2B2B2B" stroke-width="1.5" stroke-linecap="round" stroke-linejoin="round"/>
<path d="M10.5 4H14.5C15.052 4 15.5 4.448 15.5 5V15H2.5" stroke="#2B2B2B" stroke-width="1.5" stroke-linecap="round" stroke-linejoin="round"/>
<path d="M5.5 19.416H3.5C2.948 19.416 2.5 18.968 2.5 18.416V13" stroke="#2B2B2B" stroke-width="1.5" stroke-linecap="round" stroke-linejoin="round"/>
<path d="M15.5 7H19.823C20.232 7 20.6 7.249 20.751 7.629L22.357 11.643C22.451 11.879 22.5 12.131 22.5 12.385V18.333C22.5 18.885 22.052 19.333 21.5 19.333H19.669" stroke="#2B2B2B" stroke-width="1.5" stroke-linecap="round" stroke-linejoin="round"/>
<path d="M16.4999 19.4199H8.66992" stroke="#2B2B2B" stroke-width="1.5" stroke-linecap="round" stroke-linejoin="round"/>
<path d="M22.5 14H18.5V10H21.7" stroke="#2B2B2B" stroke-width="1.5" stroke-linecap="round" stroke-linejoin="round"/>
<path d="M2.5 4H7.5" stroke="#2B2B2B" stroke-width="1.5" stroke-linecap="round" stroke-linejoin="round"/>
<path d="M2.5 7H5.5" stroke="#2B2B2B" stroke-width="1.5" stroke-linecap="round" stroke-linejoin="round"/>
<path d="M3.5 10H2.5" stroke="#2B2B2B" stroke-width="1.5" stroke-linecap="round" stroke-linejoin="round"/>
</svg>
