<svg width="25" height="24" viewBox="0 0 25 24" fill="none" xmlns="http://www.w3.org/2000/svg">
<path fill-rule="evenodd" clip-rule="evenodd" d="M11.5781 0.0970598C11.7267 0.033021 11.8867 0 12.0484 0C12.2101 0 12.37 0.033021 12.5186 0.0970598L20.1502 3.386C20.5797 3.5711 20.9457 3.87885 21.2028 4.2711C21.46 4.66335 21.597 5.12285 21.5968 5.59263V13.824C21.5966 15.3046 21.2072 16.7588 20.4679 18.0394C19.7287 19.3199 18.6658 20.3812 17.3871 21.1158L12.6404 23.842C12.4601 23.9455 12.256 24 12.0484 24C11.8407 24 11.6367 23.9455 11.4564 23.842L6.70965 21.1158C5.4306 20.381 4.36754 19.3193 3.62825 18.0383C2.88896 16.7573 2.49972 15.3026 2.5 13.8216V5.59263C2.50005 5.12306 2.63713 4.66381 2.89427 4.2718C3.1514 3.87978 3.51728 3.57221 3.94658 3.3872L11.5781 0.0970598ZM16.4729 10.4487C16.6903 10.2223 16.8106 9.91925 16.8079 9.60464C16.8052 9.29002 16.6796 8.98907 16.4583 8.7666C16.237 8.54413 15.9377 8.41793 15.6247 8.4152C15.3118 8.41247 15.0103 8.53341 14.7852 8.75198L10.8548 12.7033L9.31158 11.1518C9.08647 10.9332 8.78498 10.8123 8.47204 10.815C8.15909 10.8177 7.85974 10.9439 7.63844 11.1664C7.41715 11.3889 7.29163 11.6898 7.28891 12.0044C7.28619 12.3191 7.40649 12.6222 7.6239 12.8485L10.011 15.2483C10.2348 15.4732 10.5384 15.5996 10.8548 15.5996C11.1713 15.5996 11.4749 15.4732 11.6987 15.2483L16.4729 10.4487Z" fill="#2B2B2B"/>
</svg>
