<svg width="25" height="24" viewBox="0 0 25 24" fill="none" xmlns="http://www.w3.org/2000/svg">
<path d="M21.2439 15.7206L20.6043 15.3289V15.3289L21.2439 15.7206ZM20.2894 17.2794L20.929 17.6711V17.6711L20.2894 17.2794ZM3.75609 8.27942L3.11648 7.88775H3.11648L3.75609 8.27942ZM4.71064 6.72057L5.35025 7.11223L4.71064 6.72057ZM7.31852 6.06172L7.6771 5.403L7.6771 5.403L7.31852 6.06172ZM4.45487 10.7383L4.09629 11.397H4.09629L4.45487 10.7383ZM17.6815 17.9383L17.3229 18.597L17.3229 18.597L17.6815 17.9383ZM20.5451 13.2617L20.1866 13.9204V13.9205L20.5451 13.2617ZM4.71064 17.2794L4.07103 17.6711L4.07103 17.6711L4.71064 17.2794ZM3.75609 15.7206L4.3957 15.3289L4.3957 15.3289L3.75609 15.7206ZM20.2894 6.72058L20.929 6.32892L20.2894 6.72058ZM21.2439 8.27943L20.6043 8.67109V8.67109L21.2439 8.27943ZM20.5451 10.7383L20.9037 11.397L20.5451 10.7383ZM17.6815 6.06174L18.0401 6.72046V6.72046L17.6815 6.06174ZM4.45487 13.2617L4.81345 13.9205H4.81345L4.45487 13.2617ZM7.31851 17.9383L6.95994 17.2795L6.95993 17.2795L7.31851 17.9383ZM17.58 6.11698L17.2214 5.45825L17.58 6.11698ZM7.42 6.11697L7.06142 6.77569L7.06142 6.77569L7.42 6.11697ZM17.58 17.883L17.9386 17.2243L17.9386 17.2243L17.58 17.883ZM7.42 17.883L7.77858 18.5418L7.77858 18.5418L7.42 17.883ZM11.5455 3.75H13.4545V2.25H11.5455V3.75ZM13.4545 20.25H11.5455V21.75H13.4545V20.25ZM11.5455 20.25C10.8631 20.25 10.3864 19.7389 10.3864 19.2H8.88635C8.88635 20.6493 10.1191 21.75 11.5455 21.75V20.25ZM14.6136 19.2C14.6136 19.7389 14.1369 20.25 13.4545 20.25V21.75C14.8809 21.75 16.1136 20.6493 16.1136 19.2H14.6136ZM13.4545 3.75C14.1369 3.75 14.6136 4.26107 14.6136 4.8H16.1136C16.1136 3.35071 14.8809 2.25 13.4545 2.25V3.75ZM11.5455 2.25C10.1191 2.25 8.88635 3.35071 8.88635 4.8H10.3864C10.3864 4.26107 10.8631 3.75 11.5455 3.75V2.25ZM20.6043 15.3289L19.6498 16.8878L20.929 17.6711L21.8835 16.1122L20.6043 15.3289ZM4.3957 8.67108L5.35025 7.11223L4.07103 6.32891L3.11648 7.88775L4.3957 8.67108ZM5.35025 7.11223C5.65889 6.6082 6.38055 6.40506 6.95993 6.72045L7.6771 5.403C6.43027 4.72428 4.81676 5.11109 4.07103 6.32891L5.35025 7.11223ZM4.81345 10.0795C4.25746 9.77688 4.1043 9.14696 4.3957 8.67108L3.11648 7.88775C2.35352 9.13373 2.82606 10.7055 4.09629 11.397L4.81345 10.0795ZM19.6498 16.8878C19.3411 17.3918 18.6195 17.5949 18.0401 17.2795L17.3229 18.597C18.5697 19.2757 20.1832 18.8889 20.929 17.6711L19.6498 16.8878ZM21.8835 16.1122C22.6465 14.8663 22.1739 13.2945 20.9037 12.603L20.1866 13.9205C20.7425 14.2231 20.8957 14.853 20.6043 15.3289L21.8835 16.1122ZM5.35025 16.8878L4.3957 15.3289L3.11648 16.1122L4.07103 17.6711L5.35025 16.8878ZM19.6498 7.11225C19.9133 7.54271 20.152 7.93242 20.3247 8.21451C20.4111 8.35556 20.481 8.46971 20.5293 8.54859C20.5534 8.58803 20.5722 8.61865 20.5849 8.63942C20.5913 8.6498 20.5961 8.65772 20.5994 8.66304C20.601 8.6657 20.6022 8.66771 20.6031 8.66906C20.6035 8.66973 20.6038 8.67024 20.604 8.67058C20.6041 8.67075 20.6042 8.67088 20.6042 8.67096C20.6042 8.671 20.6043 8.67104 20.6043 8.67106C20.6043 8.67107 20.6043 8.67108 20.6043 8.67108C20.6043 8.67109 20.6043 8.67109 21.2439 8.27943C21.8835 7.88777 21.8835 7.88777 21.8835 7.88776C21.8835 7.88776 21.8835 7.88775 21.8835 7.88774C21.8835 7.88772 21.8835 7.88768 21.8834 7.88764C21.8834 7.88756 21.8833 7.88743 21.8832 7.88726C21.883 7.88692 21.8827 7.88641 21.8823 7.88574C21.8815 7.88439 21.8802 7.88238 21.8786 7.87972C21.8753 7.8744 21.8705 7.86648 21.8641 7.8561C21.8514 7.83533 21.8327 7.80471 21.8085 7.76527C21.7602 7.68639 21.6903 7.57224 21.6039 7.43119C21.4312 7.1491 21.1926 6.75939 20.929 6.32892L19.6498 7.11225ZM20.6043 8.67109C20.8957 9.14697 20.7425 9.77689 20.1866 10.0795L20.9037 11.397C22.1739 10.7055 22.6465 9.13374 21.8835 7.88777L20.6043 8.67109ZM18.0401 6.72046C18.6195 6.40507 19.3411 6.60822 19.6498 7.11225L20.929 6.32892C20.1832 5.1111 18.5697 4.72429 17.3229 5.40301L18.0401 6.72046ZM4.3957 15.3289C4.1043 14.853 4.25746 14.2231 4.81345 13.9205L4.09629 12.603C2.82606 13.2945 2.35352 14.8663 3.11648 16.1122L4.3957 15.3289ZM4.07103 17.6711C4.81675 18.8889 6.43027 19.2757 7.6771 18.597L6.95993 17.2795C6.38055 17.5949 5.65889 17.3918 5.35025 16.8878L4.07103 17.6711ZM17.9386 6.7757L18.0401 6.72046L17.3229 5.40301L17.2214 5.45825L17.9386 6.7757ZM6.95993 6.72045L7.06142 6.77569L7.77858 5.45824L7.6771 5.403L6.95993 6.72045ZM18.0401 17.2795L17.9386 17.2243L17.2214 18.5417L17.3229 18.597L18.0401 17.2795ZM7.06142 17.2243L6.95994 17.2795L7.67709 18.597L7.77858 18.5418L7.06142 17.2243ZM4.09629 11.397C4.57404 11.6571 4.57404 12.3429 4.09629 12.603L4.81345 13.9205C6.33498 13.0922 6.33498 10.9078 4.81345 10.0795L4.09629 11.397ZM7.77858 18.5418C8.27798 18.2699 8.88635 18.6314 8.88635 19.2H10.3864C10.3864 17.4934 8.56035 16.4084 7.06142 17.2243L7.77858 18.5418ZM16.1136 19.2C16.1136 18.6314 16.722 18.2699 17.2214 18.5417L17.9386 17.2243C16.4397 16.4083 14.6136 17.4934 14.6136 19.2H16.1136ZM20.9037 12.603C20.426 12.3429 20.426 11.6571 20.9037 11.397L20.1866 10.0795C18.665 10.9078 18.665 13.0922 20.1866 13.9204L20.9037 12.603ZM7.06142 6.77569C8.56035 7.59165 10.3864 6.50663 10.3864 4.8H8.88635C8.88635 5.3686 8.27798 5.7301 7.77858 5.45824L7.06142 6.77569ZM17.2214 5.45825C16.722 5.73011 16.1136 5.36861 16.1136 4.8H14.6136C14.6136 6.50663 16.4397 7.59166 17.9386 6.7757L17.2214 5.45825ZM14.75 12C14.75 13.2426 13.7426 14.25 12.5 14.25V15.75C14.5711 15.75 16.25 14.0711 16.25 12H14.75ZM12.5 14.25C11.2574 14.25 10.25 13.2426 10.25 12H8.75001C8.75001 14.0711 10.4289 15.75 12.5 15.75V14.25ZM10.25 12C10.25 10.7574 11.2574 9.75 12.5 9.75V8.25C10.4289 8.25 8.75001 9.92893 8.75001 12H10.25ZM12.5 9.75C13.7426 9.75 14.75 10.7574 14.75 12H16.25C16.25 9.92893 14.5711 8.25 12.5 8.25V9.75Z" fill="#2B2B2B"/>
</svg>
