<svg width="25" height="24" viewBox="0 0 25 24" fill="none" xmlns="http://www.w3.org/2000/svg">
<path d="M3.5 6H5.5H21.5" stroke="#2B2B2B" stroke-width="2" stroke-linecap="round" stroke-linejoin="round"/>
<path d="M20.5 6C20.5 5.44772 20.0523 5 19.5 5C18.9477 5 18.5 5.44772 18.5 6H20.5ZM6.5 6C6.5 5.44772 6.05228 5 5.5 5C4.94772 5 4.5 5.44772 4.5 6H6.5ZM7.5 6C7.5 6.55228 7.94772 7 8.5 7C9.05228 7 9.5 6.55228 9.5 6H7.5ZM15.5 6C15.5 6.55228 15.9477 7 16.5 7C17.0523 7 17.5 6.55228 17.5 6H15.5ZM18.5 6V20H20.5V6H18.5ZM18.5 20C18.5 20.5523 18.0523 21 17.5 21V23C19.1569 23 20.5 21.6569 20.5 20H18.5ZM17.5 21H7.5V23H17.5V21ZM7.5 21C6.94772 21 6.5 20.5523 6.5 20H4.5C4.5 21.6569 5.84315 23 7.5 23V21ZM6.5 20V6H4.5V20H6.5ZM9.5 6V4H7.5V6H9.5ZM9.5 4C9.5 3.44772 9.94772 3 10.5 3V1C8.84315 1 7.5 2.34315 7.5 4H9.5ZM10.5 3H14.5V1H10.5V3ZM14.5 3C15.0523 3 15.5 3.44772 15.5 4H17.5C17.5 2.34315 16.1569 1 14.5 1V3ZM15.5 4V6H17.5V4H15.5Z" fill="#2B2B2B"/>
<path d="M10.5 11V17" stroke="#2B2B2B" stroke-width="2" stroke-linecap="round" stroke-linejoin="round"/>
<path d="M14.5 11V17" stroke="#2B2B2B" stroke-width="2" stroke-linecap="round" stroke-linejoin="round"/>
</svg>
